<svg width="26" height="26" viewBox="0 0 26 26" fill="none" xmlns="http://www.w3.org/2000/svg">
<g clip-path="url(#clip0_407_2286)">
<path d="M14.625 11.375C14.625 10.944 14.7962 10.5307 15.101 10.226C15.4057 9.92121 15.819 9.75 16.25 9.75H24.375V13H16.25C15.819 13 15.4057 12.8288 15.101 12.524C14.7962 12.2193 14.625 11.806 14.625 11.375ZM1.625 14.625H8.125C8.55598 14.625 8.9693 14.7962 9.27405 15.101C9.57879 15.4057 9.75 15.819 9.75 16.25C9.75 16.681 9.57879 17.0943 9.27405 17.399C8.9693 17.7038 8.55598 17.875 8.125 17.875H1.625V14.625Z" fill="#1331A1"/>
<path d="M5.6875 0C5.90299 0 6.10965 0.0856024 6.26202 0.237976C6.4144 0.390349 6.5 0.597012 6.5 0.8125V1.625H19.5V0.8125C19.5 0.597012 19.5856 0.390349 19.738 0.237976C19.8903 0.0856024 20.097 0 20.3125 0C20.528 0 20.7347 0.0856024 20.887 0.237976C21.0394 0.390349 21.125 0.597012 21.125 0.8125V1.625H22.75C23.612 1.625 24.4386 1.96741 25.0481 2.5769C25.6576 3.1864 26 4.01305 26 4.875V22.75C26 23.612 25.6576 24.4386 25.0481 25.0481C24.4386 25.6576 23.612 26 22.75 26H3.25C2.38805 26 1.5614 25.6576 0.951903 25.0481C0.34241 24.4386 0 23.612 0 22.75V4.875C0 4.01305 0.34241 3.1864 0.951903 2.5769C1.5614 1.96741 2.38805 1.625 3.25 1.625H4.875V0.8125C4.875 0.597012 4.9606 0.390349 5.11298 0.237976C5.26535 0.0856024 5.47201 0 5.6875 0ZM1.625 6.5V22.75C1.625 23.181 1.7962 23.5943 2.10095 23.899C2.4057 24.2038 2.81902 24.375 3.25 24.375H22.75C23.181 24.375 23.5943 24.2038 23.899 23.899C24.2038 23.5943 24.375 23.181 24.375 22.75V6.5H1.625Z" fill="#1331A1"/>
</g>
<defs>
<clipPath id="clip0_407_2286">
<rect width="26" height="26" fill="white"/>
</clipPath>
</defs>
</svg>
