<svg width="366" height="236" viewBox="0 0 366 236" fill="none" xmlns="http://www.w3.org/2000/svg">
<path d="M95.2641 97.5767L51.8478 163.858L27.4802 100.537L95.2641 97.5767Z" stroke="#F44528"/>
<path d="M9.2613 134.63L83.5473 162.195L27.2431 200.052L9.2613 134.63Z" stroke="#F31366"/>
<path d="M1.2613 29.63L75.5473 57.1949L19.2431 95.0522L1.2613 29.63Z" stroke="#A2CA02"/>
<path d="M93.9705 83.4534L30.3325 36.247L94.9664 15.6123L93.9705 83.4534Z" stroke="#A2CA02"/>
<path d="M170.971 154.453L107.333 107.247L171.966 86.6123L170.971 154.453Z" stroke="#A2CA02"/>
<path d="M170.971 234.453L107.333 187.247L171.966 166.612L170.971 234.453Z" stroke="#A2CA02"/>
<path d="M93.83 194.748L78.3571 117.038L140.113 145.137L93.83 194.748Z" stroke="#F44528"/>
<path d="M124.83 89.7481L109.357 12.0382L171.113 40.1367L124.83 89.7481Z" stroke="#F44528"/>
<path d="M216.97 69.4534L153.332 22.247L217.966 1.61228L216.97 69.4534Z" stroke="#A2CA02"/>
<path d="M241.732 82.4805L182.754 135.393L175.46 67.9386L241.732 82.4805Z" stroke="#F31366"/>
<path d="M212.732 168.48L153.754 221.393L146.46 153.939L212.732 168.48Z" stroke="#F31366"/>
</svg>
