<svg width="715" height="633" viewBox="0 0 715 633" fill="none" xmlns="http://www.w3.org/2000/svg">
<path d="M272.727 361.826L164.187 470.801L110.96 309.245L272.727 361.826Z" stroke="#F31366" stroke-width="5"/>
<path d="M414.512 225.742L470.47 369.008L301.167 352.575L414.512 225.742Z" stroke="#F31366" stroke-width="5"/>
<path d="M566.532 114.595L457.631 244.525L404.227 61.8401L566.532 114.595Z" stroke="#F8B62F" stroke-width="5"/>
<path d="M372.512 129.742L428.47 273.008L259.167 256.575L372.512 129.742Z" stroke="#F8B62F" stroke-width="5"/>
<path d="M325.774 431.732L172.061 437.087L243.636 282.78L325.774 431.732Z" stroke="#F8B62F" stroke-width="5"/>
<path d="M352.26 208.769L295.18 351.592L182.833 223.875L352.26 208.769Z" stroke="#F8B62F" stroke-width="5"/>
<path d="M347.774 256.732L194.061 262.087L265.636 107.78L347.774 256.732Z" stroke="#1331A1" stroke-width="5"/>
<path d="M512.26 150.769L455.18 293.592L342.833 165.875L512.26 150.769Z" stroke="#1331A1" stroke-width="5"/>
<path d="M157.798 344.868L164.102 498.545L9.35574 427.924L157.798 344.868Z" stroke="#A2CA02" stroke-width="5"/>
<path d="M420.651 423.512L563.824 479.709L436.802 592.842L420.651 423.512Z" stroke="#A2CA02" stroke-width="5"/>
<path d="M377.798 373.77L384.102 527.448L229.356 456.827L377.798 373.77Z" stroke="#1331A1" stroke-width="5"/>
<path d="M535.808 233.843L678.98 290.04L551.959 403.173L535.808 233.843Z" stroke="#1331A1" stroke-width="5"/>
<path d="M212.791 369.65L364.735 393.51L265.226 531.465L212.791 369.65Z" stroke="#F31366" stroke-width="5"/>
<path d="M364.879 298.511L447.981 169.087L534.1 315.775L364.879 298.511Z" stroke="#F31366" stroke-width="5"/>
<path d="M432.791 398.552L584.735 422.413L485.226 560.368L432.791 398.552Z" stroke="#F31366" stroke-width="5"/>
</svg>
